<svg xmlns="http://www.w3.org/2000/svg" width="1313" height="347" viewBox="0 0 1313 347" version="1.1"><path d="M 73 108.941 C 73 141.164, 73.342 157.093, 74.044 157.527 C 74.618 157.882, 75.630 157.722, 76.294 157.173 C 77.495 156.177, 98.472 147, 99.546 147 C 99.856 147, 102.013 146.133, 104.340 145.073 C 106.666 144.013, 109.791 142.840, 111.285 142.465 L 114 141.783 114 108.356 L 114 74.929 109.446 72.977 C 106.941 71.903, 101.654 70.057, 97.696 68.874 C 93.738 67.691, 90.050 66.397, 89.500 66 C 88.545 65.310, 74.835 61, 73.595 61 C 73.268 61, 73 82.573, 73 108.941 M 247.500 63.060 C 244.200 64.092, 240.600 65.378, 239.500 65.917 C 238.400 66.455, 232.429 68.577, 226.230 70.631 L 214.961 74.366 215.230 94.933 C 215.462 112.636, 215.709 115.445, 217 115.108 C 217.825 114.892, 224.575 113.682, 232 112.419 C 239.425 111.156, 247.863 109.573, 250.750 108.901 L 256 107.681 256 84.340 C 256 66.286, 255.717 61.021, 254.750 61.091 C 254.063 61.141, 250.800 62.027, 247.500 63.060 M 455.326 86.040 C 448.717 88.650, 442.622 94.733, 440.551 100.786 C 439.488 103.893, 438.725 110.869, 438.312 121.250 L 437.687 137 432.343 137 L 427 137 427 151 L 427 165 432.500 165 L 438 165 438 216.500 L 438 268 455 268 L 472 268 472 216.500 L 472 165 482.500 165 L 493 165 493 151 L 493 137 482.500 137 L 472 137 472 127 C 472 114.369, 473.236 112.684, 482.500 112.685 C 483.050 112.685, 485.863 112.997, 488.750 113.377 L 494 114.069 494 101.217 L 494 88.365 488.250 86.489 C 479.432 83.613, 462.075 83.376, 455.326 86.040 M 304 128.440 C 299.875 129.643, 295.825 130.909, 295 131.253 C 294.175 131.597, 289.450 133.001, 284.500 134.373 C 276.297 136.647, 270.225 138.501, 248 145.522 C 238.702 148.460, 208.337 159.105, 201.253 161.911 C 177.066 171.492, 164.064 178.079, 159.610 183.010 C 151.398 192.100, 154.722 204.595, 165.853 206.475 C 173.586 207.782, 180.609 204.587, 205.741 188.331 C 210.273 185.399, 214.211 183, 214.491 183 C 214.771 183, 215 199.121, 215 218.823 L 215 254.647 226.250 258.528 C 249.884 266.682, 253.537 267.889, 254.750 267.943 C 255.736 267.988, 256.003 256.106, 256.016 211.750 L 256.031 155.500 270.266 147.881 C 278.095 143.690, 286.975 139.111, 290 137.706 C 301.395 132.411, 307.032 130.031, 309.723 129.377 C 311.251 129.005, 313.388 128.094, 314.473 127.351 C 316.369 126.052, 316.350 126.005, 313.973 126.126 C 312.613 126.195, 308.125 127.236, 304 128.440 M 338.202 136.022 C 315.551 141.956, 297.807 160.106, 291.296 184 C 290.030 188.646, 289.522 194.207, 289.513 203.500 C 289.501 215.150, 289.800 217.415, 292.386 225.306 C 299.855 248.093, 317.394 264.090, 340.697 269.369 C 350.097 271.499, 368.756 271.519, 378.303 269.410 C 390.543 266.705, 401.101 260.949, 410.120 252.062 C 414.454 247.792, 418 243.852, 418 243.307 C 418 241.860, 391.357 229.627, 389.810 230.364 C 389.090 230.708, 386.358 232.536, 383.739 234.427 C 375.973 240.034, 368.892 242.214, 358.500 242.195 C 346.181 242.173, 339.453 239.613, 331.920 232.080 C 326.681 226.841, 322 218.056, 322 213.462 C 322 212.198, 329.117 212, 374.649 212 L 427.297 212 426.683 200.750 C 426.345 194.563, 425.339 186.816, 424.447 183.536 C 417.862 159.314, 400.479 142.048, 376.590 136.002 C 365.988 133.319, 348.486 133.328, 338.202 136.022 M 541.112 135.581 C 528.784 138.896, 514.341 149.754, 506.455 161.634 C 496.070 177.280, 492.392 202.196, 497.524 222.137 C 503.312 244.625, 521.856 264.056, 542.644 269.416 C 546.024 270.287, 552.792 271, 557.684 271 C 571.865 271, 582.104 267.518, 592.809 259.057 L 598 254.953 598 261.477 L 598 268 614.500 268 L 631 268 631 202.500 L 631 137 614.546 137 L 598.091 137 597.796 143.478 L 597.500 149.955 592.540 146.037 C 586.403 141.189, 578.951 137.483, 571.369 135.508 C 564.093 133.613, 548.288 133.651, 541.112 135.581 M 690.222 137.047 C 684.493 139.910, 680.776 143.227, 676.802 149.024 C 675.133 151.460, 675.104 151.381, 675.052 144.250 L 675 137 660.500 137 L 646 137 646 202.500 L 646 268 663 268 L 680 268 680.035 229.750 C 680.078 182.763, 680.996 175.630, 688.035 167.613 C 692.048 163.043, 696.074 161.891, 701.979 163.626 C 704.442 164.350, 706.768 164.618, 707.146 164.221 C 707.937 163.393, 717 139.050, 717 137.755 C 717 135.961, 709.790 134, 703.192 134 C 697.533 134, 695.243 134.538, 690.222 137.047 M 770 135.937 C 744.823 142.348, 726.681 158.854, 718.826 182.500 C 716.826 188.519, 716.505 191.461, 716.534 203.500 C 716.565 216.073, 716.838 218.248, 719.213 224.835 C 725.957 243.535, 739.733 258.248, 757.500 265.723 C 769.864 270.926, 793.125 272.611, 808.792 269.440 C 820.276 267.115, 833.117 260.518, 841.794 252.484 C 845.757 248.815, 848.991 245.292, 848.981 244.656 C 848.965 243.709, 826.846 228.302, 823.871 227.166 C 823.391 226.983, 820.927 228.655, 818.396 230.883 C 807.229 240.712, 785.286 243.398, 770.701 236.721 C 763.019 233.204, 757.546 227.855, 753.760 220.163 C 750.705 213.958, 750.500 212.879, 750.500 203 C 750.500 193.127, 750.706 192.039, 753.750 185.856 C 759.588 173.997, 770.006 166.823, 783.930 165.075 C 797.580 163.361, 809.144 166.436, 818.400 174.240 L 823.299 178.372 833.400 172.985 C 838.955 170.023, 845.207 166.629, 847.294 165.445 L 851.087 163.290 846.984 158.099 C 839.837 149.058, 827.851 141.265, 814.500 136.982 C 804.414 133.746, 780.784 133.191, 770 135.937 M 910.112 135.581 C 897.784 138.896, 883.341 149.754, 875.455 161.634 C 865.070 177.280, 861.392 202.196, 866.524 222.137 C 872.312 244.625, 890.856 264.056, 911.644 269.416 C 915.024 270.287, 921.792 271, 926.684 271 C 940.865 271, 951.104 267.518, 961.809 259.057 L 967 254.953 967 261.477 L 967 268 983.500 268 L 1000 268 1000 202.500 L 1000 137 983.546 137 L 967.091 137 966.796 143.478 L 966.500 149.955 961.540 146.037 C 955.403 141.189, 947.951 137.483, 940.369 135.508 C 933.093 133.613, 917.288 133.651, 910.112 135.581 M 1081.265 135.542 C 1074.176 137.451, 1067.455 140.977, 1061.479 145.922 L 1056.500 150.042 1056.204 143.521 L 1055.909 137 1038.954 137 L 1022 137 1022 202.500 L 1022 268 1038.937 268 L 1055.874 268 1056.236 228.750 C 1056.635 185.595, 1056.886 183.599, 1062.982 175.183 C 1071.039 164.061, 1087.343 161.094, 1096.453 169.092 C 1104.491 176.150, 1105.980 186.248, 1105.992 233.750 L 1106 268 1123 268 L 1140 268 1140 231.684 C 1140 209.758, 1140.432 193.032, 1141.089 189.474 C 1143.133 178.420, 1149.350 169.846, 1157.927 166.253 C 1162.590 164.300, 1172.779 164.315, 1176.558 166.280 C 1182.791 169.522, 1186.382 175.460, 1187.949 185.117 C 1188.533 188.715, 1188.988 208.185, 1188.992 229.750 L 1189 268 1206 268 L 1223 268 1223 224.072 C 1223 180.059, 1222.365 169.092, 1219.294 160.044 C 1215.912 150.081, 1207.063 141.170, 1196.252 136.843 C 1191.321 134.869, 1188.716 134.540, 1178 134.540 C 1167.294 134.540, 1164.677 134.869, 1159.764 136.836 C 1151.564 140.120, 1142.424 146.523, 1138.064 152.038 L 1134.308 156.791 1132.544 153.805 C 1127.758 145.703, 1119.573 139.122, 1110.327 135.940 C 1103.521 133.599, 1089.207 133.403, 1081.265 135.542 M 351.764 163.087 C 340.379 164.749, 331.095 171.309, 325.186 181.866 L 322.872 186 357.936 186 C 377.221 186, 393 185.757, 393 185.460 C 393 183.612, 388.311 176.311, 384.993 172.993 C 376.775 164.775, 364.752 161.191, 351.764 163.087 M 557.115 165.167 C 546.271 166.889, 537.329 173.999, 532.173 185 C 527.129 195.762, 528.199 214.019, 534.456 223.931 C 538.169 229.812, 546.493 236.671, 552.231 238.577 C 558.577 240.684, 569.885 240.696, 575.761 238.600 C 586.141 234.899, 594.361 225.848, 597.552 214.606 C 600.053 205.797, 599.239 192.312, 595.749 184.730 C 589.055 170.190, 573.879 162.506, 557.115 165.167 M 926.115 165.167 C 915.271 166.889, 906.329 173.999, 901.173 185 C 896.129 195.762, 897.199 214.019, 903.456 223.931 C 907.169 229.812, 915.493 236.671, 921.231 238.577 C 927.577 240.684, 938.885 240.696, 944.761 238.600 C 955.141 234.899, 963.361 225.848, 966.552 214.606 C 969.053 205.797, 968.239 192.312, 964.749 184.730 C 958.055 170.190, 942.879 162.506, 926.115 165.167 M 106.007 207.275 C 94.257 218.953, 88 231.679, 88 243.900 C 88 250.803, 92.523 268, 94.338 268 C 94.904 268, 99.559 265.463, 104.683 262.363 L 114 256.726 114 229.422 C 114 214.405, 113.611 201.878, 113.135 201.584 C 112.660 201.290, 109.452 203.851, 106.007 207.275" stroke="none" fill="#14743c" fill-rule="evenodd"/><path d="M 338 97.530 C 331.125 98.832, 323.475 100.421, 321 101.062 C 318.525 101.703, 311.550 103.253, 305.500 104.506 C 294.012 106.886, 277.186 110.752, 256 115.879 C 249.125 117.542, 238.867 120.010, 233.204 121.363 C 227.541 122.715, 222.141 124.143, 221.204 124.537 C 220.267 124.930, 214.775 126.498, 209 128.021 C 191.919 132.524, 163.080 140.945, 159 142.621 C 158.175 142.960, 151.425 145.358, 144 147.950 C 136.575 150.542, 128.925 153.394, 127 154.286 C 125.075 155.179, 121.025 156.866, 118 158.037 C 105.711 162.790, 87.402 172.457, 76.500 179.948 C 64.706 188.052, 54.896 198.493, 51.555 206.500 C 45.081 222.009, 51.234 238.724, 69.785 256.027 C 78.011 263.699, 85 268.997, 85 267.559 C 85 267.255, 83.426 265.263, 81.501 263.133 C 73.743 254.545, 71.512 243.090, 75.484 232.226 C 83.161 211.229, 120.199 183.871, 174.500 159.089 C 183.300 155.072, 192.835 150.709, 195.688 149.393 C 198.542 148.077, 201.158 147, 201.502 147 C 201.846 147, 204.462 145.937, 207.314 144.638 C 210.166 143.339, 213.625 141.938, 215 141.527 C 216.375 141.115, 218.850 140.162, 220.500 139.410 C 223.881 137.870, 234.059 134.053, 244.500 130.411 C 248.350 129.068, 252.850 127.340, 254.500 126.571 C 256.150 125.803, 260.200 124.406, 263.500 123.466 C 266.800 122.527, 269.950 121.411, 270.500 120.987 C 271.050 120.563, 275.100 119.219, 279.500 118 C 283.900 116.781, 287.950 115.455, 288.500 115.053 C 289.050 114.652, 293.325 113.277, 298 112 C 302.675 110.723, 306.950 109.372, 307.500 109 C 308.050 108.627, 312.550 107.277, 317.500 106 C 322.450 104.723, 326.950 103.353, 327.500 102.956 C 328.050 102.559, 331.875 101.497, 336 100.595 C 340.125 99.694, 344.400 98.570, 345.500 98.098 C 346.600 97.626, 348.625 96.766, 350 96.188 C 353.537 94.699, 352.109 94.859, 338 97.530" stroke="none" fill="#fcc423" fill-rule="evenodd"/></svg>